#tb 0: 1/25
#media_type 0: video
#codec_id 0: rawvideo
#dimensions 0: 832x480
#sar 0: 0/1
0,          0,          0,        1,   599040, 0x2b58dee2
0,          1,          1,        1,   599040, 0x2b58dee2
0,          2,          2,        1,   599040, 0xb055b638
0,          3,          3,        1,   599040, 0x3e2b06c9
0,          4,          4,        1,   599040, 0xa0e53610
0,          5,          5,        1,   599040, 0x5f6eca50
0,          6,          6,        1,   599040, 0x516e679d
0,          7,          7,        1,   599040, 0xdbbbf791
0,          8,          8,        1,   599040, 0x04be5abc
0,          9,          9,        1,   599040, 0x85283636
0,         10,         10,        1,   599040, 0x1bcdb857
0,         11,         11,        1,   599040, 0x258bb8a8
0,         12,         12,        1,   599040, 0x33340003
0,         13,         13,        1,   599040, 0xa2cc0dc3
0,         14,         14,        1,   599040, 0x2b83400f
0,         15,         15,        1,   599040, 0xf33ba886
0,         16,         16,        1,   599040, 0x73f43f10
0,         17,         17,        1,   599040, 0x63ff4628
0,         18,         18,        1,   599040, 0x41170243
0,         19,         19,        1,   599040, 0x84f34b72
0,         20,         20,        1,   599040, 0x4913e415
0,         21,         21,        1,   599040, 0x38cfaac3
0,         22,         22,        1,   599040, 0xb2f0650c
0,         23,         23,        1,   599040, 0xe0d12249
0,         24,         24,        1,   599040, 0xca931ca0
0,         25,         25,        1,   599040, 0xfc14d1cb
0,         26,         26,        1,   599040, 0xb74667d8
0,         27,         27,        1,   599040, 0xfdc22b8b
0,         28,         28,        1,   599040, 0x30b425eb
0,         29,         29,        1,   599040, 0xc31f3b73
0,         30,         30,        1,   599040, 0xefda0062
0,         31,         31,        1,   599040, 0x8fe0d742
0,         32,         32,        1,   599040, 0xdaa54d1d
0,         33,         33,        1,   599040, 0x2188ae4b
0,         34,         34,        1,   599040, 0x7ef0f088
0,         35,         35,        1,   599040, 0xcfd2619f
0,         36,         36,        1,   599040, 0x3b0fca50
0,         37,         37,        1,   599040, 0x78746df2
0,         38,         38,        1,   599040, 0xdc917e1b
0,         39,         39,        1,   599040, 0xc6cf2732
0,         40,         40,        1,   599040, 0xdbd2f5f2
0,         41,         41,        1,   599040, 0x45a8cba3
0,         42,         42,        1,   599040, 0xe276b712
0,         43,         43,        1,   599040, 0x36057004
0,         44,         44,        1,   599040, 0xe0da7e77
0,         45,         45,        1,   599040, 0x823e7c30
0,         46,         46,        1,   599040, 0x62c9457a
0,         47,         47,        1,   599040, 0xf6743a30
0,         48,         48,        1,   599040, 0x8db4f476
0,         49,         49,        1,   599040, 0x79537927
